<svg width="14" height="15" viewBox="0 0 14 15" fill="none" xmlns="http://www.w3.org/2000/svg">
<path d="M13.6111 0.73999H5.05557C4.84061 0.73999 4.66667 0.913933 4.66667 1.12889C4.66667 1.34385 4.84061 1.51779 5.05557 1.51779H12.6723L0.113941 14.0762C-0.0379804 14.2281 -0.0379804 14.4742 0.113941 14.6261C0.189884 14.702 0.289415 14.74 0.38891 14.74C0.488405 14.74 0.5879 14.702 0.663879 14.6261L13.2222 2.06769V9.68446C13.2222 9.89942 13.3961 10.0734 13.6111 10.0734C13.8261 10.0734 14 9.89942 14 9.68446V1.12889C14 0.913933 13.826 0.73999 13.6111 0.73999Z" fill="#FF0000"/>
</svg>
