<svg width="27" height="35" viewBox="0 0 27 35" fill="none" xmlns="http://www.w3.org/2000/svg">
<mask id="mask0_5_30" style="mask-type:luminance" maskUnits="userSpaceOnUse" x="0" y="4" width="27" height="26">
<path d="M26.1087 4.71143H0.851562V29.9686H26.1087V4.71143Z" fill="white"/>
</mask>
<g mask="url(#mask0_5_30)">
<path d="M22.5087 14.3381H20.4951C19.8222 13.3501 18.9269 12.5242 17.8839 11.9352C16.7159 11.2756 15.3896 10.927 14.0484 10.927H13.4801C13.0679 10.927 12.7338 11.2611 12.7338 11.6733V14.3381H4.45152C2.63305 14.3381 1.12616 15.6938 0.885862 17.4473C0.883165 17.4642 0.880853 17.4812 0.879311 17.4985C0.861775 17.6429 0.851562 17.7893 0.851562 17.9382V20.7919C0.851562 21.2041 1.1857 21.5382 1.59787 21.5382H4.20911C4.54113 22.8208 5.70829 23.7706 7.0932 23.7706C8.47811 23.7706 9.64528 22.8208 9.97727 21.5382H16.983C17.3152 22.8208 18.4822 23.7706 19.8671 23.7706C21.252 23.7706 22.4189 22.8208 22.7511 21.5382H25.3624C25.7746 21.5382 26.1087 21.2041 26.1087 20.7919V17.9382C26.1087 15.9531 24.4937 14.3381 22.5087 14.3381ZM14.2265 12.4223C15.8759 12.4696 17.4405 13.173 18.5752 14.3381H14.2265V12.4223ZM2.34419 18.3086H3.49691C3.90908 18.3086 4.24322 17.9745 4.24322 17.5623C4.24322 17.1501 3.90908 16.816 3.49691 16.816H2.66927C3.04291 16.2246 3.70194 15.8309 4.45152 15.8309H12.7338V20.0456H9.97727C9.64506 18.763 8.47811 17.813 7.0932 17.813C5.70829 17.813 4.54132 18.763 4.20911 20.0456H2.34419V18.3086ZM8.57928 20.7919C8.57928 21.6114 7.91272 22.278 7.0932 22.278C6.27366 22.278 5.60713 21.6114 5.60713 20.7919C5.60713 19.9724 6.27366 19.3058 7.0932 19.3058C7.91272 19.3058 8.57928 19.9724 8.57928 20.7919ZM21.3532 20.7919C21.3532 21.6114 20.6866 22.278 19.8671 22.278C19.0476 22.278 18.381 21.6114 18.381 20.7919C18.381 19.9724 19.0476 19.3058 19.8671 19.3058C20.6866 19.3058 21.3532 19.9724 21.3532 20.7919ZM22.7511 20.0456C22.4192 18.763 21.252 17.813 19.8671 17.813C18.4822 17.813 17.315 18.763 16.983 20.0456H14.2265V15.8309H22.5087C23.2451 15.8309 23.8942 16.211 24.2712 16.7848H23.1161C22.704 16.7848 22.3698 17.1189 22.3698 17.5311C22.3698 17.9433 22.704 18.2776 23.1161 18.2776H24.6161V20.0456H22.7511Z" fill="white"/>
</g>
</svg>
