<svg width="19" height="19" viewBox="0 0 19 19" fill="none" xmlns="http://www.w3.org/2000/svg">
<path d="M3.22994 2.65004C2.66994 2.65004 2.18994 2.85004 1.78994 3.25004C1.38994 3.65004 1.18994 4.14004 1.18994 4.72004C1.18994 5.30004 1.38994 5.79004 1.78994 6.19004C2.18994 6.59004 2.66994 6.79004 3.22994 6.79004C3.78994 6.79004 4.26994 6.59004 4.66994 6.19004C5.06994 5.79004 5.26994 5.30004 5.26994 4.72004C5.26994 4.14004 5.06994 3.65004 4.66994 3.25004C4.26994 2.85004 3.78994 2.65004 3.22994 2.65004ZM3.22994 3.79004C3.46994 3.79004 3.68994 3.88004 3.88994 4.06004C4.08994 4.24004 4.18994 4.46004 4.18994 4.72004C4.18994 4.98004 4.08994 5.20004 3.88994 5.38004C3.68994 5.56004 3.46994 5.65004 3.22994 5.65004C2.98994 5.65004 2.76994 5.56004 2.56994 5.38004C2.36994 5.20004 2.26994 4.98004 2.26994 4.72004C2.26994 4.46004 2.36994 4.24004 2.56994 4.06004C2.76994 3.88004 2.98994 3.79004 3.22994 3.79004ZM3.22994 13.15C2.66994 13.15 2.18994 13.35 1.78994 13.75C1.38994 14.15 1.18994 14.64 1.18994 15.22C1.18994 15.8 1.38994 16.29 1.78994 16.69C2.18994 17.09 2.66994 17.29 3.22994 17.29C3.78994 17.29 4.26994 17.09 4.66994 16.69C5.06994 16.29 5.26994 15.8 5.26994 15.22C5.26994 14.64 5.06994 14.15 4.66994 13.75C4.26994 13.35 3.78994 13.15 3.22994 13.15ZM3.22994 14.29C3.46994 14.29 3.68994 14.38 3.88994 14.56C4.08994 14.74 4.18994 14.96 4.18994 15.22C4.18994 15.48 4.08994 15.7 3.88994 15.88C3.68994 16.06 3.46994 16.15 3.22994 16.15C2.98994 16.15 2.76994 16.06 2.56994 15.88C2.36994 15.7 2.26994 15.48 2.26994 15.22C2.26994 14.96 2.36994 14.74 2.56994 14.56C2.76994 14.38 2.98994 14.29 3.22994 14.29ZM9.22994 2.65004C8.66994 2.65004 8.18994 2.85004 7.78994 3.25004C7.38994 3.65004 7.18994 4.14004 7.18994 4.72004C7.18994 5.30004 7.38994 5.79004 7.78994 6.19004C8.18994 6.59004 8.66994 6.79004 9.22994 6.79004C9.78994 6.79004 10.2699 6.59004 10.6699 6.19004C11.0699 5.79004 11.2699 5.30004 11.2699 4.72004C11.2699 4.14004 11.0699 3.65004 10.6699 3.25004C10.2699 2.85004 9.78994 2.65004 9.22994 2.65004ZM9.22994 3.79004C9.46994 3.79004 9.68994 3.88004 9.88994 4.06004C10.0899 4.24004 10.1899 4.46004 10.1899 4.72004C10.1899 4.98004 10.0899 5.20004 9.88994 5.38004C9.68994 5.56004 9.46994 5.65004 9.22994 5.65004C8.98994 5.65004 8.76994 5.56004 8.56994 5.38004C8.36994 5.20004 8.26994 4.98004 8.26994 4.72004C8.26994 4.46004 8.36994 4.24004 8.56994 4.06004C8.76994 3.88004 8.98994 3.79004 9.22994 3.79004ZM9.22994 13.15C8.66994 13.15 8.18994 13.35 7.78994 13.75C7.38994 14.15 7.18994 14.64 7.18994 15.22C7.18994 15.8 7.38994 16.29 7.78994 16.69C8.18994 17.09 8.66994 17.29 9.22994 17.29C9.78994 17.29 10.2699 17.09 10.6699 16.69C11.0699 16.29 11.2699 15.8 11.2699 15.22C11.2699 14.64 11.0699 14.15 10.6699 13.75C10.2699 13.35 9.78994 13.15 9.22994 13.15ZM9.22994 14.29C9.46994 14.29 9.68994 14.38 9.88994 14.56C10.0899 14.74 10.1899 14.96 10.1899 15.22C10.1899 15.48 10.0899 15.7 9.88994 15.88C9.68994 16.06 9.46994 16.15 9.22994 16.15C8.98994 16.15 8.76994 16.06 8.56994 15.88C8.36994 15.7 8.26994 15.48 8.26994 15.22C8.26994 14.96 8.36994 14.74 8.56994 14.56C8.76994 14.38 8.98994 14.29 9.22994 14.29ZM15.2299 2.65004C14.6699 2.65004 14.1899 2.85004 13.7899 3.25004C13.3899 3.65004 13.1899 4.14004 13.1899 4.72004C13.1899 5.30004 13.3899 5.79004 13.7899 6.19004C14.1899 6.59004 14.6699 6.79004 15.2299 6.79004C15.7899 6.79004 16.2699 6.59004 16.6699 6.19004C17.0699 5.79004 17.2699 5.30004 17.2699 4.72004C17.2699 4.14004 17.0699 3.65004 16.6699 3.25004C16.2699 2.85004 15.7899 2.65004 15.2299 2.65004ZM15.2299 3.79004C15.4699 3.79004 15.6899 3.88004 15.8899 4.06004C16.0899 4.24004 16.1899 4.46004 16.1899 4.72004C16.1899 4.98004 16.0899 5.20004 15.8899 5.38004C15.6899 5.56004 15.4699 5.65004 15.2299 5.65004C14.9899 5.65004 14.7699 5.56004 14.5699 5.38004C14.3699 5.20004 14.2699 4.98004 14.2699 4.72004C14.2699 4.46004 14.3699 4.24004 14.5699 4.06004C14.7699 3.88004 14.9899 3.79004 15.2299 3.79004ZM15.2299 13.15C14.6699 13.15 14.1899 13.35 13.7899 13.75C13.3899 14.15 13.1899 14.64 13.1899 15.22C13.1899 15.8 13.3899 16.29 13.7899 16.69C14.1899 17.09 14.6699 17.29 15.2299 17.29C15.7899 17.29 16.2699 17.09 16.6699 16.69C17.0699 16.29 17.2699 15.8 17.2699 15.22C17.2699 14.64 17.0699 14.15 16.6699 13.75C16.2699 13.35 15.7899 13.15 15.2299 13.15ZM15.2299 14.29C15.4699 14.29 15.6899 14.38 15.8899 14.56C16.0899 14.74 16.1899 14.96 16.1899 15.22C16.1899 15.48 16.0899 15.7 15.8899 15.88C15.6899 16.06 15.4699 16.15 15.2299 16.15C14.9899 16.15 14.7699 16.06 14.5699 15.88C14.3699 15.7 14.2699 15.48 14.2699 15.22C14.2699 14.96 14.3699 14.74 14.5699 14.56C14.7699 14.38 14.9899 14.29 15.2299 14.29ZM2.68994 6.19004V13.69C2.68994 13.85 2.73994 13.99 2.83994 14.11C2.93994 14.23 3.06994 14.29 3.22994 14.29C3.38994 14.29 3.51994 14.23 3.61994 14.11C3.71994 13.99 3.76994 13.87 3.76994 13.75V6.19004C3.76994 6.07004 3.71994 5.95004 3.61994 5.83004C3.51994 5.71004 3.38994 5.65004 3.22994 5.65004C3.06994 5.65004 2.93994 5.71004 2.83994 5.83004C2.73994 5.95004 2.68994 6.07004 2.68994 6.19004ZM8.68994 6.19004V13.69C8.68994 13.85 8.73994 13.99 8.83994 14.11C8.93994 14.23 9.06994 14.29 9.22994 14.29C9.38994 14.29 9.51994 14.23 9.61994 14.11C9.71994 13.99 9.76994 13.87 9.76994 13.75V6.19004C9.76994 6.07004 9.71994 5.95004 9.61994 5.83004C9.51994 5.71004 9.38994 5.65004 9.22994 5.65004C9.06994 5.65004 8.93994 5.71004 8.83994 5.83004C8.73994 5.95004 8.68994 6.07004 8.68994 6.19004ZM14.6899 6.19004V9.19004C14.6899 9.27004 14.6699 9.33004 14.6299 9.37004C14.5899 9.41004 14.5499 9.43004 14.5099 9.43004H3.22994C3.06994 9.43004 2.93994 9.48004 2.83994 9.58004C2.73994 9.68004 2.68994 9.81004 2.68994 9.97004C2.68994 10.13 2.73994 10.26 2.83994 10.36C2.93994 10.46 3.06994 10.51 3.22994 10.51H14.5099C14.8699 10.51 15.1699 10.39 15.4099 10.15C15.6499 9.91004 15.7699 9.59004 15.7699 9.19004V6.25004C15.7699 6.09004 15.7199 5.95004 15.6199 5.83004C15.5199 5.71004 15.3899 5.65004 15.2299 5.65004C15.0699 5.65004 14.9399 5.71004 14.8399 5.83004C14.7399 5.95004 14.6899 6.07004 14.6899 6.19004Z" fill="#FF0000"/>
</svg>
